<svg width="24" height="26" viewBox="0 0 24 26" fill="none" xmlns="http://www.w3.org/2000/svg">
<path d="M23.7131 24.0601L18.017 18.2655C19.8744 16.313 21.0508 13.6676 21.0508 10.7074C21.0508 4.78682 16.3453 0 10.5254 0C4.70548 0 0 4.78682 0 10.7074C0 16.6279 4.70548 21.4147 10.5254 21.4147C12.7543 21.4147 14.8594 20.6589 16.593 19.4622L22.4129 25.3827C22.5987 25.5717 22.8463 25.6347 23.094 25.6347C23.3416 25.6347 23.5893 25.5717 23.775 25.3827C24.0846 25.0048 24.0846 24.438 23.7131 24.0601ZM1.85742 10.7074C1.85742 5.85756 5.75802 1.88953 10.5254 1.88953C15.2928 1.88953 19.1934 5.85756 19.1934 10.7074C19.1934 15.5572 15.2928 19.5252 10.5254 19.5252C5.75802 19.5252 1.85742 15.5572 1.85742 10.7074Z" fill="#313133"/>
</svg>
